<svg id="honoring-life--logo" width="100%" height="100%" version="1.1" viewBox="0 0 135.47 135.47" xmlns="http://www.w3.org/2000/svg">
   <defs id="defs2">
      <linearGradient id="border-shade" x1="123.74" x2="123.74" y1="98.705" y2="132.46" gradientTransform="matrix(1.5937 0 0 1.5937 -129.09 -75.97)" gradientUnits="userSpaceOnUse">
         <stop id="stop11316" stop-color="#eeeeee" offset="0"/>
         <stop id="stop11318" stop-color="#51a241" offset="1"/>
      </linearGradient>
   </defs>
   <!-- square BG: rx/ry = 0 -->
	<!-- rounded-corner BG: rx/ry = /6.95 ~ 19.5 -->
	<!-- circle BG: rx/ry >= 135.47/2 >= 67.735 -->
   <rect id="background" width="135.47" height="135.47" rx="67.733" ry="67.733" fill="#1a3b18" stroke-width="1.5937"/>
   <circle id="outer-circle" cx="67.735" cy="62.763" r="62.429" fill="url(#border-shade)" stroke-width="0"/>
   <circle id="inner-circle" cx="67.735" cy="62.763" r="54.336" fill="#1a3b18" stroke-width="0"/>
   <path id="upper-cheveron" d="m114.53 35.137c-26.373 6.6994-39.638 18.256-46.403 32.799-6.766-14.542-20.744-26.199-47.117-32.899-3.8637 1.4736-4.4678 4.3442-3.8041 7.7581 29.042 8.1073 43.829 21.815 50.921 38.544 7.0919-16.731 21.146-30.337 50.188-38.444-0.28055-2.8583 1.3262-6.118-3.7843-7.7586z" fill="#eeeeee" stroke-width="0"/>
   <path id="lower-cheveron" d="m68.117 96.409c5.1006-19.196 16.073-36.507 52.351-46.741 3.7113 2.6019 2.7431 5.2038 1.3424 7.8059-38.291 11.559-47.286 33.9-49.546 59.54v10.916c0 4.8119-4.1467 7.1969-4.1467 7.1969s-4.1467-2.385-4.1467-7.1969v-10.916c-2.2596-25.64-12.025-48.016-50.316-59.575-1.3787-2.5815-2.3951-5.163 1.3325-7.7445 36.278 10.234 48.03 27.519 53.13 46.715z" fill="#eeeeee" stroke-width="0"/>
   <path id="top-leaf" d="m68.117 11.582c5.8125 7.4578 14.592 13.05 14.592 22.311-1.6919 14.228-10.68 12.9-14.592 24.637m0-46.948c-5.8125 7.4578-14.592 13.05-14.592 22.311 1.6919 14.228 10.68 12.9 14.592 24.637" fill="#eeeeee" stroke-width="0"/>
   <path id="top-leaf-shadow" d="m68.117 11.582c5.8125 7.4578 14.592 13.05 14.592 22.311-1.6919 14.228-10.68 12.9-14.592 24.637z" fill="#51a241" stroke-width="0"/>
   <path id="lower-leaf-left" d="m19.018 66.755c8.8281 42.203 32.514 31.873 38.484 48.596-2.2516-24.368-15.755-43.337-38.484-48.596z" fill="#51a241" stroke-width="0"/>
   <path id="lower-leaf-right" d="m117.22 66.755c-8.8281 42.203-32.514 31.873-38.484 48.596 2.2516-24.368 15.755-43.337 38.484-48.596z" fill="#51a241" stroke-width="0"/>
</svg>
